<?xml version="1.0" encoding="UTF-8" standalone="no"?>
<!DOCTYPE svg PUBLIC "-//W3C//DTD SVG 1.1//EN"
 "http://www.w3.org/Graphics/SVG/1.1/DTD/svg11.dtd">
<!-- Generated by graphviz version 2.50.0 (0)
 -->
<!-- Title: snakemake_dag Pages: 1 -->
<svg width="678pt" height="1412pt"
 viewBox="0.00 0.00 678.00 1412.00" xmlns="http://www.w3.org/2000/svg" xmlns:xlink="http://www.w3.org/1999/xlink">
<g id="graph0" class="graph" transform="scale(1 1) rotate(0) translate(4 1408)">
<title>snakemake_dag</title>
<polygon fill="white" stroke="transparent" points="-4,4 -4,-1408 674,-1408 674,4 -4,4"/>
<!-- 0 -->
<g id="node1" class="node">
<title>0</title>
<path fill="none" stroke="#d89c56" stroke-width="2" d="M434,-36C434,-36 404,-36 404,-36 398,-36 392,-30 392,-24 392,-24 392,-12 392,-12 392,-6 398,0 404,0 404,0 434,0 434,0 440,0 446,-6 446,-12 446,-12 446,-24 446,-24 446,-30 440,-36 434,-36"/>
<text text-anchor="middle" x="419" y="-15.5" font-family="sans" font-size="10.00">all</text>
</g>
<!-- 1 -->
<g id="node2" class="node">
<title>1</title>
<path fill="none" stroke="#56c9d8" stroke-width="2" d="M102.5,-468C102.5,-468 41.5,-468 41.5,-468 35.5,-468 29.5,-462 29.5,-456 29.5,-456 29.5,-444 29.5,-444 29.5,-438 35.5,-432 41.5,-432 41.5,-432 102.5,-432 102.5,-432 108.5,-432 114.5,-438 114.5,-444 114.5,-444 114.5,-456 114.5,-456 114.5,-462 108.5,-468 102.5,-468"/>
<text text-anchor="middle" x="72" y="-447.5" font-family="sans" font-size="10.00">VariantCalling</text>
</g>
<!-- 1&#45;&gt;0 -->
<g id="edge3" class="edge">
<title>1&#45;&gt;0</title>
<path fill="none" stroke="grey" stroke-width="2" d="M92.65,-431.58C119.5,-406.87 163,-358.83 163,-307 163,-307 163,-307 163,-161 163,-62.38 310.07,-31.68 381.27,-22.6"/>
<polygon fill="grey" stroke="grey" stroke-width="2" points="382.09,-26.02 391.6,-21.36 381.26,-19.07 382.09,-26.02"/>
</g>
<!-- 2 -->
<g id="node3" class="node">
<title>2</title>
<path fill="none" stroke="#bed856" stroke-width="2" d="M116,-540C116,-540 86,-540 86,-540 80,-540 74,-534 74,-528 74,-528 74,-516 74,-516 74,-510 80,-504 86,-504 86,-504 116,-504 116,-504 122,-504 128,-510 128,-516 128,-516 128,-528 128,-528 128,-534 122,-540 116,-540"/>
<text text-anchor="middle" x="101" y="-519.5" font-family="sans" font-size="10.00">vartrix</text>
</g>
<!-- 2&#45;&gt;1 -->
<g id="edge5" class="edge">
<title>2&#45;&gt;1</title>
<path fill="none" stroke="grey" stroke-width="2" d="M93.83,-503.7C90.57,-495.81 86.63,-486.3 83,-477.55"/>
<polygon fill="grey" stroke="grey" stroke-width="2" points="86.15,-476 79.09,-468.1 79.68,-478.68 86.15,-476"/>
</g>
<!-- 3 -->
<g id="node4" class="node">
<title>3</title>
<path fill="none" stroke="#8fd856" stroke-width="2" d="M124,-612C124,-612 78,-612 78,-612 72,-612 66,-606 66,-600 66,-600 66,-588 66,-588 66,-582 72,-576 78,-576 78,-576 124,-576 124,-576 130,-576 136,-582 136,-588 136,-588 136,-600 136,-600 136,-606 130,-612 124,-612"/>
<text text-anchor="middle" x="101" y="-591.5" font-family="sans" font-size="10.00">get_vartrix</text>
</g>
<!-- 3&#45;&gt;2 -->
<g id="edge10" class="edge">
<title>3&#45;&gt;2</title>
<path fill="none" stroke="grey" stroke-width="2" d="M101,-575.7C101,-567.98 101,-558.71 101,-550.11"/>
<polygon fill="grey" stroke="grey" stroke-width="2" points="104.5,-550.1 101,-540.1 97.5,-550.1 104.5,-550.1"/>
</g>
<!-- 4 -->
<g id="node5" class="node">
<title>4</title>
<path fill="none" stroke="#d87d56" stroke-width="2" d="M235,-900C235,-900 173,-900 173,-900 167,-900 161,-894 161,-888 161,-888 161,-876 161,-876 161,-870 167,-864 173,-864 173,-864 235,-864 235,-864 241,-864 247,-870 247,-876 247,-876 247,-888 247,-888 247,-894 241,-900 235,-900"/>
<text text-anchor="middle" x="204" y="-879.5" font-family="sans" font-size="10.00">samtools_sort</text>
</g>
<!-- 4&#45;&gt;2 -->
<g id="edge8" class="edge">
<title>4&#45;&gt;2</title>
<path fill="none" stroke="grey" stroke-width="2" d="M195.91,-863.95C184.22,-837.72 164,-785.61 164,-739 164,-739 164,-739 164,-665 164,-624.55 162.65,-612.39 145,-576 140.1,-565.89 132.86,-556.06 125.67,-547.67"/>
<polygon fill="grey" stroke="grey" stroke-width="2" points="128.16,-545.2 118.87,-540.1 122.95,-549.88 128.16,-545.2"/>
</g>
<!-- 13 -->
<g id="node14" class="node">
<title>13</title>
<path fill="none" stroke="#d89556" stroke-width="2" d="M274,-828C274,-828 204,-828 204,-828 198,-828 192,-822 192,-816 192,-816 192,-804 192,-804 192,-798 198,-792 204,-792 204,-792 274,-792 274,-792 280,-792 286,-798 286,-804 286,-804 286,-816 286,-816 286,-822 280,-828 274,-828"/>
<text text-anchor="middle" x="239" y="-807.5" font-family="sans" font-size="10.00">samtools_index</text>
</g>
<!-- 4&#45;&gt;13 -->
<g id="edge22" class="edge">
<title>4&#45;&gt;13</title>
<path fill="none" stroke="grey" stroke-width="2" d="M212.65,-863.7C216.64,-855.73 221.45,-846.1 225.87,-837.26"/>
<polygon fill="grey" stroke="grey" stroke-width="2" points="229.11,-838.61 230.45,-828.1 222.85,-835.48 229.11,-838.61"/>
</g>
<!-- 16 -->
<g id="node17" class="node">
<title>16</title>
<path fill="none" stroke="#9fd856" stroke-width="2" d="M370,-756C370,-756 242,-756 242,-756 236,-756 230,-750 230,-744 230,-744 230,-732 230,-732 230,-726 236,-720 242,-720 242,-720 370,-720 370,-720 376,-720 382,-726 382,-732 382,-732 382,-744 382,-744 382,-750 376,-756 370,-756"/>
<text text-anchor="middle" x="306" y="-735.5" font-family="sans" font-size="10.00">freebayes_by_chromosome</text>
</g>
<!-- 4&#45;&gt;16 -->
<g id="edge26" class="edge">
<title>4&#45;&gt;16</title>
<path fill="none" stroke="grey" stroke-width="2" d="M247.28,-865.78C264.9,-857.37 283.72,-845.09 295,-828 306.95,-809.88 309.15,-785.1 308.67,-766.29"/>
<polygon fill="grey" stroke="grey" stroke-width="2" points="312.16,-766.07 308.15,-756.27 305.17,-766.43 312.16,-766.07"/>
</g>
<!-- 5 -->
<g id="node6" class="node">
<title>5</title>
<path fill="none" stroke="#5682d8" stroke-width="2" d="M149,-972C149,-972 119,-972 119,-972 113,-972 107,-966 107,-960 107,-960 107,-948 107,-948 107,-942 113,-936 119,-936 119,-936 149,-936 149,-936 155,-936 161,-942 161,-948 161,-948 161,-960 161,-960 161,-966 155,-972 149,-972"/>
<text text-anchor="middle" x="134" y="-951.5" font-family="sans" font-size="10.00">retag</text>
</g>
<!-- 5&#45;&gt;4 -->
<g id="edge12" class="edge">
<title>5&#45;&gt;4</title>
<path fill="none" stroke="grey" stroke-width="2" d="M151.3,-935.7C159.86,-927.14 170.34,-916.66 179.7,-907.3"/>
<polygon fill="grey" stroke="grey" stroke-width="2" points="182.3,-909.65 186.9,-900.1 177.35,-904.7 182.3,-909.65"/>
</g>
<!-- 6 -->
<g id="node7" class="node">
<title>6</title>
<path fill="none" stroke="#d8d356" stroke-width="2" d="M138,-1044C138,-1044 96,-1044 96,-1044 90,-1044 84,-1038 84,-1032 84,-1032 84,-1020 84,-1020 84,-1014 90,-1008 96,-1008 96,-1008 138,-1008 138,-1008 144,-1008 150,-1014 150,-1020 150,-1020 150,-1032 150,-1032 150,-1038 144,-1044 138,-1044"/>
<text text-anchor="middle" x="117" y="-1023.5" font-family="sans" font-size="10.00">minimap2</text>
</g>
<!-- 6&#45;&gt;5 -->
<g id="edge13" class="edge">
<title>6&#45;&gt;5</title>
<path fill="none" stroke="grey" stroke-width="2" d="M121.2,-1007.7C123.1,-999.9 125.38,-990.51 127.48,-981.83"/>
<polygon fill="grey" stroke="grey" stroke-width="2" points="130.89,-982.65 129.85,-972.1 124.08,-981 130.89,-982.65"/>
</g>
<!-- 7 -->
<g id="node8" class="node">
<title>7</title>
<path fill="none" stroke="#ced856" stroke-width="2" d="M94,-1116C94,-1116 60,-1116 60,-1116 54,-1116 48,-1110 48,-1104 48,-1104 48,-1092 48,-1092 48,-1086 54,-1080 60,-1080 60,-1080 94,-1080 94,-1080 100,-1080 106,-1086 106,-1092 106,-1092 106,-1104 106,-1104 106,-1110 100,-1116 94,-1116"/>
<text text-anchor="middle" x="77" y="-1095.5" font-family="sans" font-size="10.00">renamer</text>
</g>
<!-- 7&#45;&gt;1 -->
<g id="edge4" class="edge">
<title>7&#45;&gt;1</title>
<path fill="none" stroke="grey" stroke-width="2" d="M60.29,-1079.81C37.65,-1054.62 0,-1005.2 0,-955 0,-955 0,-955 0,-593 0,-548.35 28.66,-503.52 49.82,-476.51"/>
<polygon fill="grey" stroke="grey" stroke-width="2" points="52.82,-478.36 56.38,-468.38 47.37,-473.96 52.82,-478.36"/>
</g>
<!-- 7&#45;&gt;2 -->
<g id="edge7" class="edge">
<title>7&#45;&gt;2</title>
<path fill="none" stroke="grey" stroke-width="2" d="M69.11,-1079.93C57.71,-1053.67 38,-1001.53 38,-955 38,-955 38,-955 38,-665 38,-624.55 39.35,-612.39 57,-576 61.9,-565.89 69.14,-556.06 76.33,-547.67"/>
<polygon fill="grey" stroke="grey" stroke-width="2" points="79.05,-549.88 83.13,-540.1 73.84,-545.2 79.05,-549.88"/>
</g>
<!-- 7&#45;&gt;6 -->
<g id="edge14" class="edge">
<title>7&#45;&gt;6</title>
<path fill="none" stroke="grey" stroke-width="2" d="M86.89,-1079.7C91.49,-1071.64 97.06,-1061.89 102.15,-1052.98"/>
<polygon fill="grey" stroke="grey" stroke-width="2" points="105.3,-1054.52 107.23,-1044.1 99.23,-1051.05 105.3,-1054.52"/>
</g>
<!-- 8 -->
<g id="node9" class="node">
<title>8</title>
<path fill="none" stroke="#56d882" stroke-width="2" d="M220,-1188C220,-1188 142,-1188 142,-1188 136,-1188 130,-1182 130,-1176 130,-1176 130,-1164 130,-1164 130,-1158 136,-1152 142,-1152 142,-1152 220,-1152 220,-1152 226,-1152 232,-1158 232,-1164 232,-1164 232,-1176 232,-1176 232,-1182 226,-1188 220,-1188"/>
<text text-anchor="middle" x="181" y="-1167.5" font-family="sans" font-size="10.00">CellRanger_count</text>
</g>
<!-- 8&#45;&gt;7 -->
<g id="edge15" class="edge">
<title>8&#45;&gt;7</title>
<path fill="none" stroke="grey" stroke-width="2" d="M155.56,-1151.88C142.21,-1142.89 125.68,-1131.76 111.22,-1122.03"/>
<polygon fill="grey" stroke="grey" stroke-width="2" points="112.79,-1118.87 102.54,-1116.19 108.88,-1124.68 112.79,-1118.87"/>
</g>
<!-- 9 -->
<g id="node10" class="node">
<title>9</title>
<path fill="none" stroke="#d8bc56" stroke-width="2" d="M262.5,-1404C262.5,-1404 195.5,-1404 195.5,-1404 189.5,-1404 183.5,-1398 183.5,-1392 183.5,-1392 183.5,-1380 183.5,-1380 183.5,-1374 189.5,-1368 195.5,-1368 195.5,-1368 262.5,-1368 262.5,-1368 268.5,-1368 274.5,-1374 274.5,-1380 274.5,-1380 274.5,-1392 274.5,-1392 274.5,-1398 268.5,-1404 262.5,-1404"/>
<text text-anchor="middle" x="229" y="-1383.5" font-family="sans" font-size="10.00">get_CellRanger</text>
</g>
<!-- 9&#45;&gt;8 -->
<g id="edge16" class="edge">
<title>9&#45;&gt;8</title>
<path fill="none" stroke="grey" stroke-width="2" d="M224.87,-1367.63C219.15,-1343.51 208.57,-1298.49 200,-1260 195.39,-1239.31 190.4,-1215.86 186.68,-1198.23"/>
<polygon fill="grey" stroke="grey" stroke-width="2" points="190.03,-1197.15 184.55,-1188.08 183.18,-1198.59 190.03,-1197.15"/>
</g>
<!-- 10 -->
<g id="node11" class="node">
<title>10</title>
<path fill="none" stroke="#97d856" stroke-width="2" d="M301,-1260C301,-1260 221,-1260 221,-1260 215,-1260 209,-1254 209,-1248 209,-1248 209,-1236 209,-1236 209,-1230 215,-1224 221,-1224 221,-1224 301,-1224 301,-1224 307,-1224 313,-1230 313,-1236 313,-1236 313,-1248 313,-1248 313,-1254 307,-1260 301,-1260"/>
<text text-anchor="middle" x="261" y="-1239.5" font-family="sans" font-size="10.00">CellRanger_mkref</text>
</g>
<!-- 9&#45;&gt;10 -->
<g id="edge18" class="edge">
<title>9&#45;&gt;10</title>
<path fill="none" stroke="grey" stroke-width="2" d="M232.49,-1367.9C236.19,-1349.96 242.28,-1320.95 248,-1296 249.94,-1287.56 252.15,-1278.39 254.19,-1270.09"/>
<polygon fill="grey" stroke="grey" stroke-width="2" points="257.64,-1270.7 256.65,-1260.15 250.85,-1269.02 257.64,-1270.7"/>
</g>
<!-- 11 -->
<g id="node12" class="node">
<title>11</title>
<path fill="none" stroke="#d6d856" stroke-width="2" d="M349,-1332C349,-1332 269,-1332 269,-1332 263,-1332 257,-1326 257,-1320 257,-1320 257,-1308 257,-1308 257,-1302 263,-1296 269,-1296 269,-1296 349,-1296 349,-1296 355,-1296 361,-1302 361,-1308 361,-1308 361,-1320 361,-1320 361,-1326 355,-1332 349,-1332"/>
<text text-anchor="middle" x="309" y="-1311.5" font-family="sans" font-size="10.00">CellRanger_mkgtf</text>
</g>
<!-- 9&#45;&gt;11 -->
<g id="edge20" class="edge">
<title>9&#45;&gt;11</title>
<path fill="none" stroke="grey" stroke-width="2" d="M248.78,-1367.7C258.75,-1358.97 271.01,-1348.24 281.86,-1338.75"/>
<polygon fill="grey" stroke="grey" stroke-width="2" points="284.23,-1341.32 289.45,-1332.1 279.62,-1336.06 284.23,-1341.32"/>
</g>
<!-- 10&#45;&gt;8 -->
<g id="edge17" class="edge">
<title>10&#45;&gt;8</title>
<path fill="none" stroke="grey" stroke-width="2" d="M241.22,-1223.7C231.25,-1214.97 218.99,-1204.24 208.14,-1194.75"/>
<polygon fill="grey" stroke="grey" stroke-width="2" points="210.38,-1192.06 200.55,-1188.1 205.77,-1197.32 210.38,-1192.06"/>
</g>
<!-- 11&#45;&gt;10 -->
<g id="edge19" class="edge">
<title>11&#45;&gt;10</title>
<path fill="none" stroke="grey" stroke-width="2" d="M297.13,-1295.7C291.5,-1287.47 284.65,-1277.48 278.43,-1268.42"/>
<polygon fill="grey" stroke="grey" stroke-width="2" points="281.27,-1266.37 272.73,-1260.1 275.5,-1270.33 281.27,-1266.37"/>
</g>
<!-- 12 -->
<g id="node13" class="node">
<title>12</title>
<path fill="none" stroke="#568ad8" stroke-width="2" d="M414.5,-1404C414.5,-1404 343.5,-1404 343.5,-1404 337.5,-1404 331.5,-1398 331.5,-1392 331.5,-1392 331.5,-1380 331.5,-1380 331.5,-1374 337.5,-1368 343.5,-1368 343.5,-1368 414.5,-1368 414.5,-1368 420.5,-1368 426.5,-1374 426.5,-1380 426.5,-1380 426.5,-1392 426.5,-1392 426.5,-1398 420.5,-1404 414.5,-1404"/>
<text text-anchor="middle" x="379" y="-1383.5" font-family="sans" font-size="10.00">gffread_gff32gtf</text>
</g>
<!-- 12&#45;&gt;11 -->
<g id="edge21" class="edge">
<title>12&#45;&gt;11</title>
<path fill="none" stroke="grey" stroke-width="2" d="M361.7,-1367.7C353.14,-1359.14 342.66,-1348.66 333.3,-1339.3"/>
<polygon fill="grey" stroke="grey" stroke-width="2" points="335.65,-1336.7 326.1,-1332.1 330.7,-1341.65 335.65,-1336.7"/>
</g>
<!-- 36 -->
<g id="node37" class="node">
<title>36</title>
<path fill="none" stroke="#d86e56" stroke-width="2" d="M440,-1332C440,-1332 396,-1332 396,-1332 390,-1332 384,-1326 384,-1320 384,-1320 384,-1308 384,-1308 384,-1302 390,-1296 396,-1296 396,-1296 440,-1296 440,-1296 446,-1296 452,-1302 452,-1308 452,-1308 452,-1320 452,-1320 452,-1326 446,-1332 440,-1332"/>
<text text-anchor="middle" x="418" y="-1311.5" font-family="sans" font-size="10.00">star_index</text>
</g>
<!-- 12&#45;&gt;36 -->
<g id="edge49" class="edge">
<title>12&#45;&gt;36</title>
<path fill="none" stroke="grey" stroke-width="2" d="M388.64,-1367.7C393.13,-1359.64 398.56,-1349.89 403.52,-1340.98"/>
<polygon fill="grey" stroke="grey" stroke-width="2" points="406.66,-1342.54 408.47,-1332.1 400.55,-1339.14 406.66,-1342.54"/>
</g>
<!-- 13&#45;&gt;2 -->
<g id="edge9" class="edge">
<title>13&#45;&gt;2</title>
<path fill="none" stroke="grey" stroke-width="2" d="M232.76,-791.94C229.09,-781.62 224.5,-768.14 221,-756 198.19,-676.97 224.53,-643.83 178,-576 167.74,-561.04 151.75,-549.04 137,-540.26"/>
<polygon fill="grey" stroke="grey" stroke-width="2" points="138.47,-537.07 128.04,-535.22 135.04,-543.17 138.47,-537.07"/>
</g>
<!-- 13&#45;&gt;16 -->
<g id="edge25" class="edge">
<title>13&#45;&gt;16</title>
<path fill="none" stroke="grey" stroke-width="2" d="M255.56,-791.7C263.68,-783.22 273.59,-772.86 282.47,-763.58"/>
<polygon fill="grey" stroke="grey" stroke-width="2" points="285.24,-765.75 289.63,-756.1 280.19,-760.91 285.24,-765.75"/>
</g>
<!-- 14 -->
<g id="node15" class="node">
<title>14</title>
<path fill="none" stroke="#5663d8" stroke-width="2" d="M318,-612C318,-612 250,-612 250,-612 244,-612 238,-606 238,-600 238,-600 238,-588 238,-588 238,-582 244,-576 250,-576 250,-576 318,-576 318,-576 324,-576 330,-582 330,-588 330,-588 330,-600 330,-600 330,-606 324,-612 318,-612"/>
<text text-anchor="middle" x="284" y="-591.5" font-family="sans" font-size="10.00">bcftools_concat</text>
</g>
<!-- 14&#45;&gt;2 -->
<g id="edge11" class="edge">
<title>14&#45;&gt;2</title>
<path fill="none" stroke="grey" stroke-width="2" d="M237.93,-577.37C209,-567.29 171.05,-553.57 138,-540 137.9,-539.96 137.8,-539.92 137.71,-539.88"/>
<polygon fill="grey" stroke="grey" stroke-width="2" points="138.94,-536.6 128.37,-535.88 136.18,-543.03 138.94,-536.6"/>
</g>
<!-- 17 -->
<g id="node18" class="node">
<title>17</title>
<path fill="none" stroke="#56d8a9" stroke-width="2" d="M229.5,-540C229.5,-540 158.5,-540 158.5,-540 152.5,-540 146.5,-534 146.5,-528 146.5,-528 146.5,-516 146.5,-516 146.5,-510 152.5,-504 158.5,-504 158.5,-504 229.5,-504 229.5,-504 235.5,-504 241.5,-510 241.5,-516 241.5,-516 241.5,-528 241.5,-528 241.5,-534 235.5,-540 229.5,-540"/>
<text text-anchor="middle" x="194" y="-519.5" font-family="sans" font-size="10.00">vawk_parse_vcf</text>
</g>
<!-- 14&#45;&gt;17 -->
<g id="edge27" class="edge">
<title>14&#45;&gt;17</title>
<path fill="none" stroke="grey" stroke-width="2" d="M261.75,-575.7C250.42,-566.88 236.47,-556.03 224.18,-546.47"/>
<polygon fill="grey" stroke="grey" stroke-width="2" points="226.03,-543.48 215.99,-540.1 221.74,-549.01 226.03,-543.48"/>
</g>
<!-- 27 -->
<g id="node28" class="node">
<title>27</title>
<path fill="none" stroke="#d8a456" stroke-width="2" d="M536,-540C536,-540 426,-540 426,-540 420,-540 414,-534 414,-528 414,-528 414,-516 414,-516 414,-510 420,-504 426,-504 426,-504 536,-504 536,-504 542,-504 548,-510 548,-516 548,-516 548,-528 548,-528 548,-534 542,-540 536,-540"/>
<text text-anchor="middle" x="481" y="-519.5" font-family="sans" font-size="10.00">vawk_parse_vcf_to_bed</text>
</g>
<!-- 14&#45;&gt;27 -->
<g id="edge39" class="edge">
<title>14&#45;&gt;27</title>
<path fill="none" stroke="grey" stroke-width="2" d="M330.19,-576.59C357.98,-566.71 393.6,-554.06 423.24,-543.52"/>
<polygon fill="grey" stroke="grey" stroke-width="2" points="424.79,-546.69 433.04,-540.04 422.45,-540.09 424.79,-546.69"/>
</g>
<!-- 15 -->
<g id="node16" class="node">
<title>15</title>
<path fill="none" stroke="#56d8d8" stroke-width="2" d="M306,-684C306,-684 276,-684 276,-684 270,-684 264,-678 264,-672 264,-672 264,-660 264,-660 264,-654 270,-648 276,-648 276,-648 306,-648 306,-648 312,-648 318,-654 318,-660 318,-660 318,-672 318,-672 318,-678 312,-684 306,-684"/>
<text text-anchor="middle" x="291" y="-663.5" font-family="sans" font-size="10.00">bgzip</text>
</g>
<!-- 15&#45;&gt;14 -->
<g id="edge23" class="edge">
<title>15&#45;&gt;14</title>
<path fill="none" stroke="grey" stroke-width="2" d="M289.27,-647.7C288.5,-639.98 287.57,-630.71 286.71,-622.11"/>
<polygon fill="grey" stroke="grey" stroke-width="2" points="290.19,-621.71 285.71,-612.1 283.22,-622.4 290.19,-621.71"/>
</g>
<!-- 16&#45;&gt;15 -->
<g id="edge24" class="edge">
<title>16&#45;&gt;15</title>
<path fill="none" stroke="grey" stroke-width="2" d="M302.29,-719.7C300.64,-711.98 298.65,-702.71 296.81,-694.11"/>
<polygon fill="grey" stroke="grey" stroke-width="2" points="300.18,-693.15 294.67,-684.1 293.34,-694.62 300.18,-693.15"/>
</g>
<!-- 17&#45;&gt;1 -->
<g id="edge6" class="edge">
<title>17&#45;&gt;1</title>
<path fill="none" stroke="grey" stroke-width="2" d="M164.16,-503.88C148.06,-494.64 128,-483.13 110.71,-473.21"/>
<polygon fill="grey" stroke="grey" stroke-width="2" points="112.37,-470.13 101.96,-468.19 108.89,-476.2 112.37,-470.13"/>
</g>
<!-- 18 -->
<g id="node19" class="node">
<title>18</title>
<path fill="none" stroke="#88d856" stroke-width="2" d="M478.5,-108C478.5,-108 359.5,-108 359.5,-108 353.5,-108 347.5,-102 347.5,-96 347.5,-96 347.5,-84 347.5,-84 347.5,-78 353.5,-72 359.5,-72 359.5,-72 478.5,-72 478.5,-72 484.5,-72 490.5,-78 490.5,-84 490.5,-84 490.5,-96 490.5,-96 490.5,-102 484.5,-108 478.5,-108"/>
<text text-anchor="middle" x="419" y="-87.5" font-family="sans" font-size="10.00">VariantCalling_DNA_GATK</text>
</g>
<!-- 18&#45;&gt;0 -->
<g id="edge1" class="edge">
<title>18&#45;&gt;0</title>
<path fill="none" stroke="grey" stroke-width="2" d="M419,-71.7C419,-63.98 419,-54.71 419,-46.11"/>
<polygon fill="grey" stroke="grey" stroke-width="2" points="422.5,-46.1 419,-36.1 415.5,-46.1 422.5,-46.1"/>
</g>
<!-- 19 -->
<g id="node20" class="node">
<title>19</title>
<path fill="none" stroke="#569ad8" stroke-width="2" d="M455,-180C455,-180 383,-180 383,-180 377,-180 371,-174 371,-168 371,-168 371,-156 371,-156 371,-150 377,-144 383,-144 383,-144 455,-144 455,-144 461,-144 467,-150 467,-156 467,-156 467,-168 467,-168 467,-174 461,-180 455,-180"/>
<text text-anchor="middle" x="419" y="-159.5" font-family="sans" font-size="10.00">categorize_sites</text>
</g>
<!-- 19&#45;&gt;18 -->
<g id="edge28" class="edge">
<title>19&#45;&gt;18</title>
<path fill="none" stroke="grey" stroke-width="2" d="M419,-143.7C419,-135.98 419,-126.71 419,-118.11"/>
<polygon fill="grey" stroke="grey" stroke-width="2" points="422.5,-118.1 419,-108.1 415.5,-118.1 422.5,-118.1"/>
</g>
<!-- 20 -->
<g id="node21" class="node">
<title>20</title>
<path fill="none" stroke="#56b1d8" stroke-width="2" d="M465,-252C465,-252 373,-252 373,-252 367,-252 361,-246 361,-240 361,-240 361,-228 361,-228 361,-222 367,-216 373,-216 373,-216 465,-216 465,-216 471,-216 477,-222 477,-228 477,-228 477,-240 477,-240 477,-246 471,-252 465,-252"/>
<text text-anchor="middle" x="419" y="-231.5" font-family="sans" font-size="10.00">gatk_genotypegvcfs</text>
</g>
<!-- 20&#45;&gt;19 -->
<g id="edge29" class="edge">
<title>20&#45;&gt;19</title>
<path fill="none" stroke="grey" stroke-width="2" d="M419,-215.7C419,-207.98 419,-198.71 419,-190.11"/>
<polygon fill="grey" stroke="grey" stroke-width="2" points="422.5,-190.1 419,-180.1 415.5,-190.1 422.5,-190.1"/>
</g>
<!-- 21 -->
<g id="node22" class="node">
<title>21</title>
<path fill="none" stroke="#d88d56" stroke-width="2" d="M440.5,-324C440.5,-324 329.5,-324 329.5,-324 323.5,-324 317.5,-318 317.5,-312 317.5,-312 317.5,-300 317.5,-300 317.5,-294 323.5,-288 329.5,-288 329.5,-288 440.5,-288 440.5,-288 446.5,-288 452.5,-294 452.5,-300 452.5,-300 452.5,-312 452.5,-312 452.5,-318 446.5,-324 440.5,-324"/>
<text text-anchor="middle" x="385" y="-303.5" font-family="sans" font-size="10.00">gatk_genomicsdbimport</text>
</g>
<!-- 21&#45;&gt;20 -->
<g id="edge30" class="edge">
<title>21&#45;&gt;20</title>
<path fill="none" stroke="grey" stroke-width="2" d="M393.4,-287.7C397.27,-279.73 401.95,-270.1 406.24,-261.26"/>
<polygon fill="grey" stroke="grey" stroke-width="2" points="409.47,-262.63 410.69,-252.1 403.17,-259.57 409.47,-262.63"/>
</g>
<!-- 22 -->
<g id="node23" class="node">
<title>22</title>
<path fill="none" stroke="#566bd8" stroke-width="2" d="M383.5,-396C383.5,-396 288.5,-396 288.5,-396 282.5,-396 276.5,-390 276.5,-384 276.5,-384 276.5,-372 276.5,-372 276.5,-366 282.5,-360 288.5,-360 288.5,-360 383.5,-360 383.5,-360 389.5,-360 395.5,-366 395.5,-372 395.5,-372 395.5,-384 395.5,-384 395.5,-390 389.5,-396 383.5,-396"/>
<text text-anchor="middle" x="336" y="-375.5" font-family="sans" font-size="10.00">gatk_haplotypecaller</text>
</g>
<!-- 22&#45;&gt;21 -->
<g id="edge32" class="edge">
<title>22&#45;&gt;21</title>
<path fill="none" stroke="grey" stroke-width="2" d="M348.11,-359.7C353.87,-351.47 360.86,-341.48 367.21,-332.42"/>
<polygon fill="grey" stroke="grey" stroke-width="2" points="370.16,-334.3 373.03,-324.1 364.42,-330.29 370.16,-334.3"/>
</g>
<!-- 23 -->
<g id="node24" class="node">
<title>23</title>
<path fill="none" stroke="#68d856" stroke-width="2" d="M239.5,-468C239.5,-468 144.5,-468 144.5,-468 138.5,-468 132.5,-462 132.5,-456 132.5,-456 132.5,-444 132.5,-444 132.5,-438 138.5,-432 144.5,-432 144.5,-432 239.5,-432 239.5,-432 245.5,-432 251.5,-438 251.5,-444 251.5,-444 251.5,-456 251.5,-456 251.5,-462 245.5,-468 239.5,-468"/>
<text text-anchor="middle" x="192" y="-447.5" font-family="sans" font-size="10.00">gatk_markduplicates</text>
</g>
<!-- 23&#45;&gt;22 -->
<g id="edge36" class="edge">
<title>23&#45;&gt;22</title>
<path fill="none" stroke="grey" stroke-width="2" d="M227.23,-431.88C246.58,-422.47 270.77,-410.71 291.43,-400.67"/>
<polygon fill="grey" stroke="grey" stroke-width="2" points="293.17,-403.71 300.64,-396.19 290.11,-397.41 293.17,-403.71"/>
</g>
<!-- 24 -->
<g id="node25" class="node">
<title>24</title>
<path fill="none" stroke="#59d856" stroke-width="2" d="M354.5,-540C354.5,-540 271.5,-540 271.5,-540 265.5,-540 259.5,-534 259.5,-528 259.5,-528 259.5,-516 259.5,-516 259.5,-510 265.5,-504 271.5,-504 271.5,-504 354.5,-504 354.5,-504 360.5,-504 366.5,-510 366.5,-516 366.5,-516 366.5,-528 366.5,-528 366.5,-534 360.5,-540 354.5,-540"/>
<text text-anchor="middle" x="313" y="-519.5" font-family="sans" font-size="10.00">gatk_addreplacerg</text>
</g>
<!-- 24&#45;&gt;23 -->
<g id="edge37" class="edge">
<title>24&#45;&gt;23</title>
<path fill="none" stroke="grey" stroke-width="2" d="M283.4,-503.88C267.43,-494.64 247.54,-483.13 230.39,-473.21"/>
<polygon fill="grey" stroke="grey" stroke-width="2" points="232.12,-470.17 221.71,-468.19 228.62,-476.23 232.12,-470.17"/>
</g>
<!-- 25 -->
<g id="node26" class="node">
<title>25</title>
<path fill="none" stroke="#70d856" stroke-width="2" d="M378,-468C378,-468 282,-468 282,-468 276,-468 270,-462 270,-456 270,-456 270,-444 270,-444 270,-438 276,-432 282,-432 282,-432 378,-432 378,-432 384,-432 390,-438 390,-444 390,-444 390,-456 390,-456 390,-462 384,-468 378,-468"/>
<text text-anchor="middle" x="330" y="-447.5" font-family="sans" font-size="10.00">gatk_create_seq_dict</text>
</g>
<!-- 25&#45;&gt;22 -->
<g id="edge35" class="edge">
<title>25&#45;&gt;22</title>
<path fill="none" stroke="grey" stroke-width="2" d="M331.48,-431.7C332.14,-423.98 332.94,-414.71 333.68,-406.11"/>
<polygon fill="grey" stroke="grey" stroke-width="2" points="337.17,-406.37 334.53,-396.1 330.19,-405.77 337.17,-406.37"/>
</g>
<!-- 26 -->
<g id="node27" class="node">
<title>26</title>
<path fill="none" stroke="#56d8b9" stroke-width="2" d="M542,-468C542,-468 420,-468 420,-468 414,-468 408,-462 408,-456 408,-456 408,-444 408,-444 408,-438 414,-432 420,-432 420,-432 542,-432 542,-432 548,-432 554,-438 554,-444 554,-444 554,-456 554,-456 554,-462 548,-468 542,-468"/>
<text text-anchor="middle" x="481" y="-447.5" font-family="sans" font-size="10.00">get_snv_sites_per_species</text>
</g>
<!-- 26&#45;&gt;20 -->
<g id="edge31" class="edge">
<title>26&#45;&gt;20</title>
<path fill="none" stroke="grey" stroke-width="2" d="M482.03,-431.76C483.19,-401.41 482.69,-337.01 462,-288 457.78,-278.01 451.09,-268.39 444.22,-260.16"/>
<polygon fill="grey" stroke="grey" stroke-width="2" points="446.63,-257.6 437.39,-252.42 441.38,-262.23 446.63,-257.6"/>
</g>
<!-- 26&#45;&gt;21 -->
<g id="edge33" class="edge">
<title>26&#45;&gt;21</title>
<path fill="none" stroke="grey" stroke-width="2" d="M469.42,-431.87C452.7,-407.14 421.67,-361.24 402.25,-332.51"/>
<polygon fill="grey" stroke="grey" stroke-width="2" points="405.12,-330.51 396.62,-324.19 399.32,-334.43 405.12,-330.51"/>
</g>
<!-- 26&#45;&gt;22 -->
<g id="edge34" class="edge">
<title>26&#45;&gt;22</title>
<path fill="none" stroke="grey" stroke-width="2" d="M445.53,-431.88C425.88,-422.39 401.28,-410.51 380.37,-400.42"/>
<polygon fill="grey" stroke="grey" stroke-width="2" points="381.88,-397.26 371.36,-396.07 378.84,-403.57 381.88,-397.26"/>
</g>
<!-- 27&#45;&gt;26 -->
<g id="edge38" class="edge">
<title>27&#45;&gt;26</title>
<path fill="none" stroke="grey" stroke-width="2" d="M481,-503.7C481,-495.98 481,-486.71 481,-478.11"/>
<polygon fill="grey" stroke="grey" stroke-width="2" points="484.5,-478.1 481,-468.1 477.5,-478.1 484.5,-478.1"/>
</g>
<!-- 29 -->
<g id="node30" class="node">
<title>29</title>
<path fill="none" stroke="#d85e56" stroke-width="2" d="M658,-468C658,-468 584,-468 584,-468 578,-468 572,-462 572,-456 572,-456 572,-444 572,-444 572,-438 578,-432 584,-432 584,-432 658,-432 658,-432 664,-432 670,-438 670,-444 670,-444 670,-456 670,-456 670,-462 664,-468 658,-468"/>
<text text-anchor="middle" x="621" y="-447.5" font-family="sans" font-size="10.00">subset_reditable</text>
</g>
<!-- 27&#45;&gt;29 -->
<g id="edge42" class="edge">
<title>27&#45;&gt;29</title>
<path fill="none" stroke="grey" stroke-width="2" d="M515.25,-503.88C534.06,-494.47 557.58,-482.71 577.67,-472.67"/>
<polygon fill="grey" stroke="grey" stroke-width="2" points="579.24,-475.79 586.62,-468.19 576.11,-469.53 579.24,-475.79"/>
</g>
<!-- 28 -->
<g id="node29" class="node">
<title>28</title>
<path fill="none" stroke="#56d873" stroke-width="2" d="M630.5,-324C630.5,-324 551.5,-324 551.5,-324 545.5,-324 539.5,-318 539.5,-312 539.5,-312 539.5,-300 539.5,-300 539.5,-294 545.5,-288 551.5,-288 551.5,-288 630.5,-288 630.5,-288 636.5,-288 642.5,-294 642.5,-300 642.5,-300 642.5,-312 642.5,-312 642.5,-318 636.5,-324 630.5,-324"/>
<text text-anchor="middle" x="591" y="-303.5" font-family="sans" font-size="10.00">LCM_RNA_editing</text>
</g>
<!-- 28&#45;&gt;0 -->
<g id="edge2" class="edge">
<title>28&#45;&gt;0</title>
<path fill="none" stroke="grey" stroke-width="2" d="M588.06,-287.98C580.23,-246.85 555.56,-140.44 500,-72 487.96,-57.17 470.64,-45.06 455.1,-36.17"/>
<polygon fill="grey" stroke="grey" stroke-width="2" points="456.67,-33.04 446.21,-31.32 453.31,-39.19 456.67,-33.04"/>
</g>
<!-- 29&#45;&gt;28 -->
<g id="edge40" class="edge">
<title>29&#45;&gt;28</title>
<path fill="none" stroke="grey" stroke-width="2" d="M617.38,-431.87C612.25,-407.56 602.79,-362.82 596.71,-334.01"/>
<polygon fill="grey" stroke="grey" stroke-width="2" points="600.12,-333.25 594.63,-324.19 593.27,-334.7 600.12,-333.25"/>
</g>
<!-- 30 -->
<g id="node31" class="node">
<title>30</title>
<path fill="none" stroke="#56d863" stroke-width="2" d="M621.5,-900C621.5,-900 572.5,-900 572.5,-900 566.5,-900 560.5,-894 560.5,-888 560.5,-888 560.5,-876 560.5,-876 560.5,-870 566.5,-864 572.5,-864 572.5,-864 621.5,-864 621.5,-864 627.5,-864 633.5,-870 633.5,-876 633.5,-876 633.5,-888 633.5,-888 633.5,-894 627.5,-900 621.5,-900"/>
<text text-anchor="middle" x="597" y="-879.5" font-family="sans" font-size="10.00">bgzip_tabix</text>
</g>
<!-- 30&#45;&gt;29 -->
<g id="edge41" class="edge">
<title>30&#45;&gt;29</title>
<path fill="none" stroke="grey" stroke-width="2" d="M597.2,-863.95C597.49,-837.29 598,-784.12 598,-739 598,-739 598,-739 598,-593 598,-552.7 607.14,-506.78 613.9,-478.34"/>
<polygon fill="grey" stroke="grey" stroke-width="2" points="617.37,-478.89 616.35,-468.34 610.57,-477.22 617.37,-478.89"/>
</g>
<!-- 31 -->
<g id="node32" class="node">
<title>31</title>
<path fill="none" stroke="#afd856" stroke-width="2" d="M547,-1044C547,-1044 491,-1044 491,-1044 485,-1044 479,-1038 479,-1032 479,-1032 479,-1020 479,-1020 479,-1014 485,-1008 491,-1008 491,-1008 547,-1008 547,-1008 553,-1008 559,-1014 559,-1020 559,-1020 559,-1032 559,-1032 559,-1038 553,-1044 547,-1044"/>
<text text-anchor="middle" x="519" y="-1023.5" font-family="sans" font-size="10.00">reditools_rna</text>
</g>
<!-- 31&#45;&gt;30 -->
<g id="edge43" class="edge">
<title>31&#45;&gt;30</title>
<path fill="none" stroke="grey" stroke-width="2" d="M528.41,-1007.87C541.88,-983.35 566.77,-938.03 582.58,-909.26"/>
<polygon fill="grey" stroke="grey" stroke-width="2" points="585.81,-910.64 587.56,-900.19 579.68,-907.27 585.81,-910.64"/>
</g>
<!-- 32 -->
<g id="node33" class="node">
<title>32</title>
<path fill="none" stroke="#56d87b" stroke-width="2" d="M536.5,-1116C536.5,-1116 463.5,-1116 463.5,-1116 457.5,-1116 451.5,-1110 451.5,-1104 451.5,-1104 451.5,-1092 451.5,-1092 451.5,-1086 457.5,-1080 463.5,-1080 463.5,-1080 536.5,-1080 536.5,-1080 542.5,-1080 548.5,-1086 548.5,-1092 548.5,-1092 548.5,-1104 548.5,-1104 548.5,-1110 542.5,-1116 536.5,-1116"/>
<text text-anchor="middle" x="500" y="-1095.5" font-family="sans" font-size="10.00">minimap_remap</text>
</g>
<!-- 32&#45;&gt;31 -->
<g id="edge44" class="edge">
<title>32&#45;&gt;31</title>
<path fill="none" stroke="grey" stroke-width="2" d="M504.7,-1079.7C506.81,-1071.9 509.36,-1062.51 511.72,-1053.83"/>
<polygon fill="grey" stroke="grey" stroke-width="2" points="515.12,-1054.67 514.36,-1044.1 508.36,-1052.84 515.12,-1054.67"/>
</g>
<!-- 33 -->
<g id="node34" class="node">
<title>33</title>
<path fill="none" stroke="#56d892" stroke-width="2" d="M547.5,-1188C547.5,-1188 450.5,-1188 450.5,-1188 444.5,-1188 438.5,-1182 438.5,-1176 438.5,-1176 438.5,-1164 438.5,-1164 438.5,-1158 444.5,-1152 450.5,-1152 450.5,-1152 547.5,-1152 547.5,-1152 553.5,-1152 559.5,-1158 559.5,-1164 559.5,-1164 559.5,-1176 559.5,-1176 559.5,-1182 553.5,-1188 547.5,-1188"/>
<text text-anchor="middle" x="499" y="-1167.5" font-family="sans" font-size="10.00">star_align_to_1_fastq</text>
</g>
<!-- 33&#45;&gt;32 -->
<g id="edge45" class="edge">
<title>33&#45;&gt;32</title>
<path fill="none" stroke="grey" stroke-width="2" d="M499.25,-1151.7C499.36,-1143.98 499.49,-1134.71 499.61,-1126.11"/>
<polygon fill="grey" stroke="grey" stroke-width="2" points="503.11,-1126.15 499.76,-1116.1 496.11,-1126.05 503.11,-1126.15"/>
</g>
<!-- 34 -->
<g id="node35" class="node">
<title>34</title>
<path fill="none" stroke="#56d8c9" stroke-width="2" d="M519.5,-1260C519.5,-1260 478.5,-1260 478.5,-1260 472.5,-1260 466.5,-1254 466.5,-1248 466.5,-1248 466.5,-1236 466.5,-1236 466.5,-1230 472.5,-1224 478.5,-1224 478.5,-1224 519.5,-1224 519.5,-1224 525.5,-1224 531.5,-1230 531.5,-1236 531.5,-1236 531.5,-1248 531.5,-1248 531.5,-1254 525.5,-1260 519.5,-1260"/>
<text text-anchor="middle" x="499" y="-1239.5" font-family="sans" font-size="10.00">star_align</text>
</g>
<!-- 34&#45;&gt;33 -->
<g id="edge46" class="edge">
<title>34&#45;&gt;33</title>
<path fill="none" stroke="grey" stroke-width="2" d="M499,-1223.7C499,-1215.98 499,-1206.71 499,-1198.11"/>
<polygon fill="grey" stroke="grey" stroke-width="2" points="502.5,-1198.1 499,-1188.1 495.5,-1198.1 502.5,-1198.1"/>
</g>
<!-- 35 -->
<g id="node36" class="node">
<title>35</title>
<path fill="none" stroke="#b6d856" stroke-width="2" d="M514,-1332C514,-1332 484,-1332 484,-1332 478,-1332 472,-1326 472,-1320 472,-1320 472,-1308 472,-1308 472,-1302 478,-1296 484,-1296 484,-1296 514,-1296 514,-1296 520,-1296 526,-1302 526,-1308 526,-1308 526,-1320 526,-1320 526,-1326 520,-1332 514,-1332"/>
<text text-anchor="middle" x="499" y="-1311.5" font-family="sans" font-size="10.00">fastp</text>
</g>
<!-- 35&#45;&gt;34 -->
<g id="edge47" class="edge">
<title>35&#45;&gt;34</title>
<path fill="none" stroke="grey" stroke-width="2" d="M499,-1295.7C499,-1287.98 499,-1278.71 499,-1270.11"/>
<polygon fill="grey" stroke="grey" stroke-width="2" points="502.5,-1270.1 499,-1260.1 495.5,-1270.1 502.5,-1270.1"/>
</g>
<!-- 36&#45;&gt;34 -->
<g id="edge48" class="edge">
<title>36&#45;&gt;34</title>
<path fill="none" stroke="grey" stroke-width="2" d="M438.02,-1295.7C448.13,-1286.97 460.54,-1276.24 471.52,-1266.75"/>
<polygon fill="grey" stroke="grey" stroke-width="2" points="473.93,-1269.29 479.21,-1260.1 469.35,-1263.99 473.93,-1269.29"/>
</g>
</g>
</svg>
